<?xml version="1.0" encoding="UTF-8"?>
<svg id="Camada_1" data-name="Camada 1" xmlns="http://www.w3.org/2000/svg" xmlns:xlink="http://www.w3.org/1999/xlink" version="1.1" viewBox="0 0 191 191">
  <defs>
    <style>
      .cls-1 {
        fill: #fff;
      }

      .cls-1, .cls-2 {
        stroke-width: 0px;
      }

      .cls-2 {
        fill: url(#Gradiente_sem_nome_18);
      }
    </style>
    <linearGradient id="Gradiente_sem_nome_18" data-name="Gradiente sem nome 18" x1="0" y1="0" x2="191" y2="191" gradientUnits="userSpaceOnUse">
      <stop offset="0" stop-color="#c1171d"/>
      <stop offset="1" stop-color="#6c1511"/>
    </linearGradient>
  </defs>
  <rect class="cls-2" width="191" height="191"/>
  <path class="cls-1" d="M60.9,88.18h-9.08c-.4,0-.8.33-.87.8l-2.67,22.64c-.07.33-.4.33-.4,0l-3.81-22.78c-.07-.4-.33-.67-.8-.67h-10.09c-.47,0-.8.33-.87.8l-5.54,45.16c-.07.47.2.8.67.8h9.08c.47,0,.8-.33.87-.8l2.67-22.71c.07-.33.33-.33.4-.07l3.81,22.91c.07.4.27.67.73.67h10.15c.47,0,.87-.33.87-.8l5.54-45.16c.07-.47-.2-.8-.67-.8ZM131.86,88.18h-9.35c-.4,0-.73.2-.8.73l-5.41,21.98c0,.27-.27.27-.33,0l-.53-21.98c0-.53-.27-.73-.73-.73h-7.55c-.47,0-.8.2-.94.73l-5.61,21.98c-.13.27-.4.27-.4,0l-.2-21.98c0-.53-.33-.73-.8-.73h-32.21c-.47,0-.8.33-.87.8l-5.54,45.16c-.07.47.2.8.67.8h23.31c.47,0,.87-.33.94-.8l.94-7.88c.07-.47-.2-.8-.67-.8h-13.03c-.2,0-.33-.13-.27-.33l1-8.48c.07-.2.2-.33.4-.33h7.08c.47,0,.87-.33.87-.8l1-7.95c.07-.47-.2-.8-.67-.8h-7.15c-.2,0-.27-.13-.27-.33l1-8.42c.07-.2.2-.33.4-.33h13.03c.14,0,.26-.03.37-.09l2.65,36.62c0,.47.33.73.8.73h8.28c.47,0,.73-.2.87-.73l5.61-22.85c.07-.27.4-.27.4,0l.47,22.85c0,.53.27.73.73.73h8.28c.47,0,.8-.2.94-.73l13.89-45.16c.13-.53-.07-.87-.6-.87ZM147.29,87.65c-7.88,0-13.83,5.14-14.76,12.89-1,8.02,4.14,12.16,8.48,15.63,3.87,3.21,5.28,4.48,5.01,6.61-.27,1.94-1.6,3.21-3.14,3.21s-2.4-1.34-2.14-3.47l.2-1.74c.07-.47-.27-.8-.67-.8h-9.15c-.47,0-.8.33-.87.8l-.27,2.27c-.94,7.28,3.67,12.42,11.76,12.42s13.89-5.01,14.9-13.09c.8-6.75-2.67-9.82-8.75-14.96-3.94-3.27-5.08-4.61-4.81-6.88.27-2.07,1.54-3.41,3.01-3.41,1.67,0,2.54,1.4,2.34,3.34l-.27,1.87c0,.47.27.8.73.8h9.02c.47,0,.87-.33.94-.8l.13-1.6c1-7.82-3.67-13.09-11.69-13.09ZM170.57,82.1c-.49-.89-1.18-1.57-2.07-2.04-.88-.48-1.79-.71-2.72-.71s-1.83.24-2.72.71c-.88.48-1.57,1.16-2.07,2.04-.5.89-.74,1.81-.74,2.77s.24,1.87.73,2.75c.49.88,1.17,1.56,2.05,2.05.88.49,1.79.73,2.75.73s1.87-.24,2.75-.73c.88-.49,1.56-1.17,2.04-2.05s.73-1.79.73-2.75-.25-1.89-.74-2.77ZM169.79,87.16c-.41.73-.97,1.3-1.71,1.71-.73.41-1.5.61-2.29.61s-1.56-.2-2.29-.61c-.73-.41-1.3-.98-1.71-1.71-.41-.73-.61-1.49-.61-2.29s.21-1.57.62-2.31c.41-.74.99-1.31,1.72-1.71.73-.4,1.49-.6,2.27-.6s1.53.2,2.26.6c.74.4,1.31.97,1.72,1.71.41.74.62,1.51.62,2.31s-.2,1.56-.61,2.29ZM166.76,85.58c-.13-.12-.3-.23-.51-.31.51-.04.92-.22,1.23-.54.31-.32.47-.7.47-1.14,0-.31-.09-.6-.28-.87-.19-.27-.43-.47-.75-.57-.31-.11-.82-.16-1.52-.16h-2.04v5.95h.96v-2.53h.56c.34,0,.59.07.77.2.25.19.59.65,1,1.38l.53.94h1.17l-.72-1.16c-.35-.55-.64-.94-.88-1.18ZM165.49,84.58h-1.16v-1.79h1.09c.47,0,.79.03.96.1.17.07.31.17.41.31.1.14.15.3.15.47,0,.27-.1.49-.3.66-.2.17-.58.25-1.14.25ZM33.68,81.78h9.1c5.58,0,9.68-3.21,10.25-8.11l1.3-10.55c.61-4.9-2.68-8.11-8.26-8.11h-9.1c-.38,0-.65.23-.69.65l-3.14,25.47c-.04.42.15.65.54.65ZM40.98,59.87c0-.15.11-.23.23-.23h4.44c2.37,0,3.67,1.72,3.37,4.36l-1.11,8.8c-.34,2.64-2.07,4.36-4.36,4.36h-4.47c-.15,0-.19-.08-.19-.23l2.1-17.06ZM56.59,81.78h3.98c.42,0,.65-.23.73-.65l3.1-25.47c.08-.42-.11-.65-.54-.65h-3.98c-.38,0-.65.23-.69.65l-3.14,25.47c-.04.42.15.65.54.65ZM66.34,81.78h3.98c.42,0,.65-.23.73-.65l1.22-10.21c.04-.15.11-.23.27-.23h3.37c.11,0,.23.08.23.19l3.29,10.4c.11.31.34.5.69.5h4.21c.46,0,.69-.34.54-.76l-3.59-10.55c-.08-.11,0-.27.15-.31,3.06-1.03,5.16-3.63,5.62-7.11.57-4.82-2.18-8.07-6.96-8.07h-10.44c-.38,0-.65.23-.69.65l-3.14,25.51c-.04.42.15.65.54.65ZM73.65,59.87c0-.15.11-.23.23-.23h4.86c2.07,0,3.33,1.41,3.1,3.48-.27,2.03-1.87,3.4-3.98,3.4h-4.82c-.15,0-.19-.11-.19-.23l.8-6.42ZM89.14,81.78h16.79c.38,0,.65-.23.69-.65l.42-3.33c.04-.42-.15-.65-.54-.65h-11.97c-.15,0-.19-.11-.19-.23l.76-6.12c0-.15.11-.23.23-.23h7.76c.42,0,.65-.23.73-.65l.38-3.33c.08-.42-.11-.65-.54-.65h-7.76c-.15,0-.19-.08-.19-.23l.73-5.85c0-.15.15-.23.23-.23h11.97c.38,0,.65-.23.69-.65l.42-3.33c.04-.42-.15-.65-.54-.65h-16.79c-.38,0-.65.23-.69.65l-3.14,25.47c-.04.42.15.65.54.65ZM110.79,81.78h3.98c.42,0,.65-.23.73-.65l3.1-25.47c.08-.42-.11-.65-.54-.65h-3.98c-.38,0-.65.23-.69.65l-3.14,25.47c-.04.42.15.65.54.65ZM122.03,59.68h6.23c.15,0,.23.08.19.23l-2.6,21.22c-.04.42.15.65.57.65h3.94c.42,0,.69-.23.73-.65l2.6-21.22c.04-.15.11-.23.27-.23h6.39c.42,0,.69-.23.73-.65l.42-3.37c.04-.42-.15-.65-.57-.65h-18.32c-.38,0-.65.23-.69.65l-.42,3.37c-.08.42.15.65.54.65ZM149.72,82.2c5.89,0,10.29-3.9,10.98-9.71l.99-8.18c.73-5.74-2.72-9.6-8.6-9.6s-10.21,3.86-10.94,9.6l-.99,8.18c-.73,5.81,2.72,9.71,8.57,9.71ZM146.36,72.68l1.03-8.41c.38-2.98,2.45-4.93,5.12-4.93s4.32,1.95,3.98,4.93l-1.03,8.41c-.38,2.94-2.41,4.9-5.16,4.9s-4.28-1.95-3.94-4.9Z"/>
</svg>