<?xml version="1.0" encoding="UTF-8"?>
<svg id="Camada_1" data-name="Camada 1" xmlns="http://www.w3.org/2000/svg" version="1.1" viewBox="0 0 419 56.83">
  <defs>
    <style>
      .cls-1 {
        fill: #000;
        stroke-width: 0px;
      }
    </style>
  </defs>
  <path class="cls-1" d="M290.09,1.41h-10.35c-.46,0-.91.39-.99.93l-3.04,26.15c-.08.39-.46.39-.46,0l-4.34-26.31c-.08-.46-.38-.77-.91-.77h-11.49c-.53,0-.91.39-.99.93l-6.32,52.15c-.08.54.23.93.76.93h10.35c.53,0,.91-.39.99-.93l3.04-26.23c.08-.39.38-.39.46-.08l4.34,26.46c.08.46.3.77.84.77h11.57c.53,0,.99-.39.99-.93l6.32-52.15c.08-.54-.23-.93-.76-.93ZM371.17,1.41h-10.66c-.46,0-.84.23-.91.85l-6.17,25.38c0,.31-.3.31-.38,0l-.61-25.38c0-.62-.3-.85-.84-.85h-8.6c-.53,0-.91.23-1.07.85l-6.39,25.38c-.15.31-.46.31-.46,0l-.23-25.38c0-.62-.38-.85-.91-.85h-36.7c-.53,0-.91.39-.99.93l-6.32,52.15c-.08.54.23.93.76.93h26.71c.49,0,.9-.35.97-.85l.97-8.31c.07-.49-.21-.84-.69-.84h-14.92c-.24,0-.4-.16-.32-.4l1.19-10.2c.08-.24.24-.4.48-.4h8.1c.53,0,.99-.38.99-.92l1.14-9.15c.08-.54-.23-.92-.76-.92h-8.21c-.24,0-.32-.16-.32-.4l1.2-10.19c.08-.24.24-.4.48-.4h14.91c.15,0,.29-.04.42-.1l3.02,42.25c0,.54.38.85.91.85h9.36c.53,0,.84-.23.99-.85l6.39-26.38c.08-.31.46-.31.46,0l.53,26.38c0,.62.3.85.84.85h9.44c.53,0,.91-.23,1.07-.85l15.83-52.15c.15-.62-.08-1-.69-1ZM389.3,0c-9.24,0-16.21,6.11-17.31,15.32-1.17,9.52,4.86,14.44,9.95,18.57,4.54,3.81,6.19,5.32,5.87,7.86-.31,2.3-1.88,3.81-3.68,3.81s-2.82-1.59-2.51-4.13l.23-2.06c.08-.56-.31-.95-.78-.95h-10.73c-.55,0-.94.4-1.02.95l-.31,2.7c-1.1,8.65,4.31,14.76,13.78,14.76s16.29-5.95,17.46-15.56c.94-8.02-3.13-11.67-10.26-17.78-4.62-3.89-5.95-5.48-5.64-8.17.31-2.46,1.8-4.05,3.52-4.05,1.96,0,2.98,1.67,2.74,3.97l-.31,2.22c0,.56.31.95.86.95h10.57c.55,0,1.02-.4,1.1-.95l.16-1.9c1.17-9.29-4.31-15.56-13.7-15.56ZM414.03,8.65c-.15-.14-.34-.27-.59-.37.6-.05,1.07-.26,1.43-.64.36-.38.54-.82.54-1.34,0-.36-.11-.7-.32-1.03-.22-.32-.5-.55-.87-.68-.36-.13-.95-.19-1.76-.19h-2.37v7h1v-3h.59c.35,0,.62.08.8.24.26.22.61.77,1.05,1.64l.55,1.11h1.82l-.84-1.37c-.4-.65-.74-1.11-1.02-1.39ZM412.38,7.41h-1.28v-2h1.2c.52,0,.87.04,1.06.11.19.08.34.19.45.35.11.15.16.33.16.53,0,.3-.11.55-.33.73-.22.18-.64.28-1.25.28ZM418.15,4.29c-.57-1.03-1.35-1.82-2.37-2.37-1.01-.55-2.05-.83-3.11-.83s-2.1.28-3.11.83c-1.01.55-1.8,1.34-2.37,2.37-.57,1.03-.85,2.1-.85,3.22s.28,2.17.84,3.19c.56,1.02,1.34,1.81,2.35,2.38,1,.56,2.06.85,3.15.85s2.15-.28,3.15-.85c1-.56,1.79-1.36,2.34-2.38.56-1.02.84-2.08.84-3.19s-.28-2.19-.85-3.22ZM417.25,10.16c-.46.85-1.12,1.51-1.96,1.98-.84.47-1.72.71-2.63.71s-1.79-.24-2.63-.71c-.84-.47-1.49-1.13-1.96-1.98-.47-.85-.7-1.73-.7-2.66s.24-1.82.71-2.68,1.13-1.52,1.98-1.98c.84-.46,1.71-.69,2.6-.69s1.75.23,2.59.69c.84.46,1.5,1.12,1.98,1.98.47.86.71,1.75.71,2.68s-.23,1.81-.7,2.66ZM24.78,3.41H7.34c-.73,0-1.25.45-1.32,1.26L0,54.15c-.07.82.29,1.26,1.03,1.26h17.45c10.7,0,18.54-6.24,19.64-15.75l2.49-20.5c1.17-9.51-5.13-15.75-15.83-15.75ZM30.42,20.88l-2.12,17.07c-.66,5.12-3.96,8.46-8.35,8.46h-8.57c-.29,0-.37-.15-.37-.45L15.04,12.86c0-.3.22-.45.44-.45h8.5c4.54,0,7.03,3.34,6.45,8.46ZM58.87,3.41h-7.62c-.73,0-1.25.45-1.32,1.26l-6.01,49.47c-.07.82.29,1.26,1.03,1.26h7.62c.81,0,1.25-.45,1.39-1.26l5.94-49.47c.15-.82-.22-1.26-1.03-1.26ZM89.95,3.41h-19.98c-.73,0-1.24.44-1.32,1.26l-6,49.48c-.07.82.29,1.26,1.02,1.26h7.4c.82,0,1.27-.46,1.42-1.29l2.4-20.26c.07-.3.22-.46.52-.46h6.59c.22,0,.45.15.45.38l6.44,20.63c.22.61.67.99,1.35.99h7.84c.88,0,1.32-.67,1.02-1.48l-6.88-20.47c-.15-.22,0-.52.29-.59,5.86-2,9.88-7.05,10.76-13.8,1.1-9.35-4.17-15.65-13.32-15.65ZM93.09,18.98c-.5,3.83-3.49,6.43-7.41,6.43h-8.98c-.29,0-.36-.22-.36-.43l1.5-12.13c0-.29.21-.43.43-.43h9.05c3.85,0,6.2,2.67,5.77,6.57ZM145.81,3.41h-32.18c-.73,0-1.25.45-1.32,1.26l-6.01,49.47c-.07.82.29,1.26,1.03,1.26h32.18c.73,0,1.25-.45,1.32-1.26l.81-6.47c.07-.82-.29-1.26-1.03-1.26h-22.95c-.3,0-.37-.23-.37-.45l1.49-12.09c0-.3.22-.45.45-.45h14.86c.81,0,1.25-.45,1.39-1.26l.73-6.47c.15-.82-.22-1.26-1.03-1.26h-14.87c-.29,0-.36-.15-.36-.44l1.36-11.13c0-.29.29-.44.43-.44h22.96c.73,0,1.25-.45,1.32-1.26l.81-6.47c.07-.82-.29-1.26-1.03-1.26ZM162.75,3.41h-7.62c-.73,0-1.25.45-1.32,1.26l-6.01,49.47c-.07.82.29,1.26,1.03,1.26h7.62c.81,0,1.25-.45,1.39-1.26l5.94-49.47c.15-.82-.22-1.26-1.03-1.26ZM206.75,11.16l.8-6.49c.07-.81-.29-1.25-1.09-1.25h-34.87c-.73,0-1.24.44-1.31,1.25l-.8,6.49c-.15.81.29,1.25,1.02,1.25h11.82c.29,0,.44.15.37.45l-4.99,41.29c-.07.82.29,1.26,1.1,1.26h7.56c.81,0,1.32-.45,1.39-1.26l4.99-41.29c.07-.3.22-.45.51-.45h12.11c.8,0,1.31-.44,1.38-1.25ZM228.41,2.49c-11.21,0-19.57,7.5-20.96,18.65l-1.91,15.9c-1.39,11.29,5.2,18.87,16.42,18.87s19.72-7.58,21.04-18.87l1.91-15.9c1.39-11.14-5.2-18.65-16.49-18.65ZM234.93,21.06l-1.98,16.34c-.73,5.72-4.62,9.51-9.9,9.51s-8.21-3.79-7.55-9.51l1.98-16.34c.73-5.79,4.69-9.58,9.82-9.58s8.28,3.79,7.62,9.58Z"/>
</svg>